<?xml version="1.0" encoding="utf-8"?>
<!-- Generator: Adobe Illustrator 24.1.2, SVG Export Plug-In . SVG Version: 6.00 Build 0)  -->
<svg version="1.1" id="Слой_1" xmlns="http://www.w3.org/2000/svg" xmlns:xlink="http://www.w3.org/1999/xlink" x="0px" y="0px"
	 viewBox="0 0 676.4 487.3" style="enable-background:new 0 0 676.4 487.3;" xml:space="preserve">
<style type="text/css">
	.st0{fill:#3ADE86;}
</style>
<g>
	<path class="st0" d="M617,103.1c-14.3,0-28.7-0.1-43,0c-12,0.1-22.9-4.2-31.7-11.4c-20.3-16.4-39.6-33.9-59.3-51
		c-7.6-6.6-15.5-10.5-26.3-10.4c-45.5,0.6-91,0.3-136.5,0.1c-10.2,0-18.4,2.9-25.8,10.4c-23,23.6-46.5,46.8-69.9,70
		c-4.3,4.2-7.8,8.6-7.1,15.1c1,8.1,7.1,12.3,13.4,14.7c15.4,5.8,30.6,3.1,45.6-2.6c18.1-6.9,32.9-18.3,46.3-31.8
		c3.6-3.6,7.7-4.9,12.5-4.9c29.7,0,59.3-0.1,89-0.1c5.5,0,10,2,14.1,6.2c38.9,39.3,78,78.4,117.1,117.5
		c11.9,11.9,23.7,23.8,35.8,35.6c7.6,7.4,12.7,16.1,14.8,26.5c0.7,3.4,2.5,4.2,5.5,4.1c15.8-0.2,31.7-0.3,47.5-0.5
		c7.7-0.1,13.9,3.3,16.5,9.6c2.4,5.8,0.4,15-5.1,18.9c-2.8,2-7.2,2.6-10.8,2.6c-17,0.1-34-0.2-51-0.6c-4.6-0.1-7.4,1.7-9.6,5.6
		c-5.4,9.9-13.4,16.7-24.5,19.7c-6.3,1.7-7,3.2-5.8,9.7c3.7,19.5-5.8,39.6-22.5,50.6c-13.2,8.8-26.9,10.4-41.8,6.4
		c-1.2-0.3-3.8,1.2-4.2,2.4c-3.7,11.8-10.7,21.1-21.1,27.4c-11.6,7.1-24.1,11.1-37.9,6.5c-6.7-2.2-6.8-1.2-9.8,5.5
		c-2.9,6.5-7.1,12.9-12.3,17.8c-12.9,12.1-28.5,17.2-46.2,13c-9.8-2.3-18.7-6.6-25.7-14.2c-8.2-8.9-8.3-8.9-16.4-0.3
		c-13.6,14.2-30.3,18.8-49,14.5c-13.9-3.2-25-11.2-32.3-23.8c-1.7-3-2.7-6.4-3.9-9.7c-1.3-3.6-3.3-5.1-7.2-3.4
		c-11.5,5.1-22.4,1.8-33.2-2.7c-10.1-4.3-17.9-11.4-23.2-21c-2.4-4.4-4.1-9.4-5.3-14.4c-0.9-4.1-2.4-5.6-6.7-4.9
		c-19.3,3.1-38.1-10.4-46.4-25.5c-4.5-8.2-7.7-16.8-6.1-26.5c0.6-3.4-2.4-4-4.9-4.4c-14.4-2.3-26-9.5-33.2-22.1
		c-3.3-5.8-7.1-6.4-12.8-6.3c-18.2,0.4-35.3,0.6-53.4,0.2C4.4,321,0.1,317,0,306.2c0-11.6,7.3-15.7,14.4-15.7
		c16.8,0.1,33.7,0.4,50.5,0.5c7.5,0.1,7.2,0,8.2-7.3c1.1-7.6,5.2-14,10.5-19.4c20.6-20.7,40.7-41.8,62.2-61.5
		c13.2-12.1,29.8-14.1,47.1-8.2c11.2,3.9,20.4,10.1,27.2,19.8c5.2,7.4,8.1,15.5,7.9,24.6c-0.2,5.9,1.2,7.5,7,8
		c16.1,1.4,27.1,10.1,35.3,23.5c6.4,10.4,9.5,21.4,6.8,33.7c-0.9,3.8,1.3,6.1,4.9,6.9c12,2.4,20.4,9.1,26.4,19.8
		c5.1,9.1,9.3,18,8.7,28.8c-0.1,1.7,2.3,4.2,4.1,5.1c5.8,2.7,12.4,3.9,17.8,7.2c9.1,5.4,15.7,13.3,20.7,22.9
		c5.1,9.8,7.1,17.8,4.8,29.3c-1.1,4.7-2.3,7.2-3.9,10c-1.6,2.8-4.1,4-0.1,7c5.2,3.8,9.6,8.7,14.6,12.7c7.6,6,15.2,2.6,21.1-2.2
		c4.4-4,7.9-9.1,9.3-14.9c1.5-6.2-2-11.4-6.1-15.6c-12-12.7-24.2-25.2-36.5-37.6c-12.7-12.9-25.8-25.4-38.3-38.4
		c-3.3-3.4-6.1-7.7-8.1-12.1c-2.9-6.4-0.4-13.2,5.3-16.8c6.4-4.1,13.3-3.5,18.6,1.8c24.4,24.4,48.7,48.8,73,73.3
		c7.9,7.9,15.9,15.7,23.6,23.7c6.7,7,17.8,6.5,24.1,3.1c7.7-4.1,11.7-13.9,10.4-22.6c-0.7-5.2-3.8-8.7-7.2-12.1
		c-23.9-23.9-47.8-47.8-71.8-71.7c-7.2-7.2-14.5-14.3-21.6-21.5c-3.8-3.9-7.2-8.3-5.8-14.1c1.9-7.5,7.2-12.9,14.7-13.8
		c3.8-0.4,9,2,11.9,4.8c33.1,32.7,65.8,65.7,98.7,98.6c5.1,5.1,10,10.2,15.3,15c10.1,9,22.2,3.2,28.6-4.9c7.3-9.2,5.6-19.7-2.4-27.6
		c-36.7-36.4-73.2-72.9-109.8-109.4c-3.9-3.9-7.1-8.3-5.7-14c1.9-7.8,7.5-13.2,15.2-14c4-0.4,9.3,2.8,12.5,5.9
		c32.2,31.9,64.3,63.9,96.1,96.2c12.6,12.9,26.6,6.7,33.9-5c5.7-9.1,2.8-17.5-4.6-24.9c-27.3-27.3-54.7-54.6-82-82
		c-21.8-21.8-43.4-43.8-65.3-65.5c-1.9-1.9-5.1-3.4-7.7-3.4c-23.5-0.3-47-0.2-70.5,0c-2.4,0-5.1,1.6-7.2,3.1
		c-11.1,7.8-21.8,16.2-33.2,23.4c-7.3,4.6-15.4,8.5-23.7,10.9c-16.3,4.9-32.9,7.7-50.1,2.9c-13.9-3.8-26.1-9.7-34.9-21.3
		c-8-10.5-10.9-22.1-8-35.6c3.2-15.2,13.6-24.7,23.8-34.7c15.7-15.4,31.5-30.6,47.3-46c1-0.9,1.5-2.4,2.2-3.5
		c-1.3-0.4-2.7-1.2-4-1.2c-14.7,0-29.3-0.2-44,0.2c-7.4,0.2-13,4.9-18.2,9.5c-16.2,14.3-31.9,29.3-48.3,43.3
		c-14.8,12.6-31.3,20.9-51.9,20.2c-25.6-0.9-51.3-0.2-77-0.1c-12.6,0-17.4-4.8-17-17.2c0.2-7.5,6.6-13.8,14.2-13.8
		c26.2,0.1,52.4-0.3,78.5,0.6c11.9,0.4,21.6-3.6,30-10.9c16-13.8,31.6-28.1,47.3-42.2c9.6-8.6,20.1-15.4,32.6-18.9
		c2-0.6,4-0.8,6.1-0.8c85.7,0,171.3,0,257-0.1c11,0,20.7,4.3,28.7,10.8c16.6,13.6,32,28.6,48.4,42.4c7.9,6.7,16.8,12.3,25.6,17.8
		c2.6,1.6,6.4,1.7,9.7,1.7c27.8,0,55.7-0.3,83.5-0.4c7.9,0,14.4,6.2,14.5,13.9c0.2,11-4.3,16.7-13.6,16.9
		C647.3,103.3,632.1,103.1,617,103.1C617,103.1,617,103.1,617,103.1z M169.4,376.3c5.4,1.1,10.2-2.2,14.2-6.1
		c19.2-18.9,38.1-38.1,57.1-57.2c8.9-8.9,9.8-15.5,3.3-26.2c-6.3-10.4-21.1-14.7-30.3-5.7c-20.2,19.7-40.2,39.8-60.1,59.8
		c-6.8,6.8-8.4,15.1-3.7,23.7C153.6,371.8,159.5,376.6,169.4,376.3z M122.6,320.4c7.1,0,11.5-4.1,17.1-9.5
		c18.7-18.2,28.6-28.9,48.8-48.6c10.9-10.6,16-20.9,4-32.8c-6.1-6.2-16.7-11.3-25.3-4.1c-3.7,3.1-7.2,6.3-10.6,9.7
		c-16.7,16.7-33.5,33.3-50.1,50.2c-6.9,7-6.6,15.7-2.9,23.7C106.9,316.3,114.1,319.6,122.6,320.4z M210.5,386.8
		c-4.6,6.2-5.2,14.5-2.1,21.7c0.3,0.7,0.6,1.4,1,2.1c5.3,10.9,21.8,13.4,29.9,5.8c14.5-13.6,28.5-27.9,42.6-42c2-2,3.9-4.3,4.8-6.9
		c3-8.3-0.4-18.1-8-24.3c-7.5-6.2-14.7-6.6-23.4-1.2c-1.8,1.1-3.3,2.8-4.8,4.3c-13,12.9-26.1,25.7-38.7,38.9
		C211.4,385.7,211,386.2,210.5,386.8z M336.1,416.5c0.2-7.7-5.4-13.4-10.6-17.9c-7-6-18.9-5.2-25.6,1.3c-6.8,6.6-13.5,13.3-20.3,20
		c-10.4,10.4-8.1,24.1,2.9,32.3c4.6,3.4,11,6.6,17.2,4c5.4-2.3,8.5-5.4,13.8-10.6c5-4.9,10-9.8,14.9-14.9
		C332.2,426.7,335.7,423.3,336.1,416.5z"/>
</g>
</svg>
