<?xml version="1.0" encoding="utf-8"?>
<!-- Generator: Adobe Illustrator 24.1.2, SVG Export Plug-In . SVG Version: 6.00 Build 0)  -->
<svg version="1.1" id="Слой_1" xmlns="http://www.w3.org/2000/svg" xmlns:xlink="http://www.w3.org/1999/xlink" x="0px" y="0px"
	 viewBox="0 0 489.5 489.4" style="enable-background:new 0 0 489.5 489.4;" xml:space="preserve">
<style type="text/css">
	.st0{fill:#008B7B;}
</style>
<g>
	<path class="st0" d="M316.7,279.7c0.5,0.5,1.2,0.5,1.7,0.1c9.1-6.9,15.7-6.3,23.2,1.2c46.8,46.8,93.6,93.5,140.3,140.5
		c3.1,3.1,5.9,7.3,7.1,11.5c2.1,7-3.4,12.2-9.1,17.7c-10,9.8-19.6,19.3-29.3,29.5c-9.6,10-18.7,12.5-27.3,3.9
		c-47.7-47.7-95.3-95.4-143-143.1c-6.5-6.5-7-13-2.1-20.6c0.7-1.1,0.8-3.7,0-4.5c-4.1-4.6-8.4-9-13-13.2c-2-1.5-3.8-0.7-4.9,0.1
		c-17.8,12.8-37.5,21-58.9,25.6c-15.3,3.3-30.6,4.9-46,3.5c-11.8-1-23.5-3.7-35.1-6.4c-22.3-5.2-41.8-16.3-59.4-30.5
		c-15.6-12.6-28.5-27.8-38.6-45.3c-8.8-15.1-15.3-31.2-18.7-48.2c-4.5-21.8-4.9-43.7-0.8-65.8c6.5-35.5,23-65.4,48.7-90.2
		C67.5,30.2,86.1,18.8,107,10.8C133.4,0.7,160.5-2,188.2,1.3c20.4,2.4,39.8,9.1,57.9,19c22.7,12.5,41.4,29.5,56.2,50.5
		c10.6,15,18.3,31.6,23.3,49.4c4.3,15.5,6.8,31.1,6.6,47.1c-0.3,17.9-3,35.6-9.1,52.7c-5.1,14.4-11.6,28-20.5,40.4
		c-0.7,1-1.8,1.8-0.2,4.1C307,269.7,311.8,274.6,316.7,279.7z M32.2,165.8c-1.1,73,59.1,134.4,133.3,134.5
		c74.6,0.1,133.5-59.2,134.6-131.9C301.3,92,240.1,34.2,170.5,32.1C91.6,29.6,31.1,94.5,32.2,165.8z M331.4,315.7
		c-1.3-1.2-3.3-1.1-4.5,0.1l0,0c-2,2-3.9,4.1-5.9,6.1c-7.3,7.2-7.2,7.2-0.2,14.3c37.2,37.4,74.4,74.8,111.7,112.1c2,2,3.4,2.2,6-0.2
		c3.2-3.1,6.4-6.3,9.5-9.5c2.6-2.7,2.6-4.1,0.1-6.3c-0.8-0.7-1.6-1.4-2.3-2.1c-37.9-37.9-75.8-75.8-113.7-113.8
		C331.9,316.2,331.7,316,331.4,315.7z"/>
</g>
</svg>
