<?xml version="1.0" encoding="utf-8"?>
<!-- Generator: Adobe Illustrator 24.1.2, SVG Export Plug-In . SVG Version: 6.00 Build 0)  -->
<svg version="1.1" id="Слой_1" xmlns="http://www.w3.org/2000/svg" xmlns:xlink="http://www.w3.org/1999/xlink" x="0px" y="0px"
	 viewBox="0 0 438.2 513.8" style="enable-background:new 0 0 438.2 513.8;" xml:space="preserve">
<style type="text/css">
	.st0{fill:#008B7B;}
</style>
<g>
	<g>
		<path class="st0" d="M437.1,215.2c-0.6,20.2-2.9,40.3-7.5,60.2C414.4,342,380.4,397.3,329.1,442c-12.1,10.6-25,20.5-38.3,29.4
			C273,483.3,254.3,494,236,505.2c-4.9,3-9.5,6.6-14.8,8.3c-2.8,0.9-7.3-0.9-10.2-2.8c-31.4-21-65.1-38.7-94.6-62.6
			c-32-26-58.6-56.7-77.5-93.4c-8.8-17.1-16.5-34.9-23-53.1c-7.2-20.3-10.8-41.6-13-63.1C-2.4,187,1.4,135.3,0.3,83.7
			C0.1,71.9,5.7,64.5,19.5,63c16.6-1.8,33.3-4,49.7-7.6c20-4.3,40-9.2,59.4-15.7c18.1-6.1,35.5-14.4,52.9-22.4
			c9.9-4.5,19.1-10.6,28.9-15.4c8.3-4.1,15.8-0.9,23.5,3c19.4,9.9,38.7,20.2,58.9,28.4c18.6,7.5,38.1,13.2,57.5,18.4
			c15.3,4.1,31.1,6.6,46.8,9.3c7.7,1.3,15.6,1.5,23.3,2.3c11.1,1.1,17.8,8.3,17.8,19.5c0.1,20.5,0,41,0,61.5
			C437.9,144.2,437.8,191.6,437.1,215.2z M35.3,166.6c0,32.4,0.5,33,0.9,50c0.7,25.3,5.4,49.7,12.8,73.7c5.6,18,13.4,35.1,22.7,51.6
			c19,33.8,43.8,62.8,75.2,85.5c20.7,14.9,42.9,27.7,64,42.1c6.3,4.3,10.6,4.1,16.7-0.1c17.8-12,36.3-22.9,54.1-34.9
			c26.9-18.1,49.7-40.6,68.6-66.9c13.6-18.9,25.1-39.1,33.2-60.9c5.5-15,9.9-30.5,13.2-46.1c3-14.4,4.9-29.2,5.3-43.9
			c0.8-32.5,0.3-65,0.3-97.5c0-5.3,0.1-7.6,0-15.7c-0.1-6-1.5-7.7-6.2-8.3c-16.2-2.4-32.4-4.9-48.5-8.1c-9.5-1.9-18.9-4.8-28.2-7.8
			c-15.5-5.1-31.2-9.8-46.2-16.2c-17.6-7.5-34.4-16.8-51.6-25.1c-1.3-0.6-3.6-0.4-5,0.3c-17.4,8.4-34.3,17.8-52.1,25.2
			c-22.4,9.3-45.4,17.3-69.3,22c-18.2,3.6-36.5,6.6-54.8,9.7c-3.6,0.6-5.2,2.1-5.1,5.9C35.4,123,35.3,144.8,35.3,166.6z"/>
		<path class="st0" d="M332.5,176.4c-0.5,4.2-2.8,7.4-6.2,10.8c-41.4,41.7-83,83.2-124.6,124.8c-8.1,8.1-18.3,8.4-26.4,0.3
			c-21.3-21.1-42.5-42.3-63.6-63.6c-10.3-10.4-6.7-25.4,7-30.3c7-2.5,12.9,0.3,17.7,5.1c15.7,15.6,31.2,31.4,46.6,47.3
			c5.1,5.3,5.6,5.1,10.8-0.2c23.9-24.2,47.9-48.2,71.8-72.3c12.1-12.2,24.3-24.3,36.3-36.5c5.6-5.7,12.3-6.2,19.3-4
			C327.6,159.7,333.6,167.1,332.5,176.4z"/>
	</g>
</g>
</svg>
